<?xml version="1.0" encoding="iso-8859-1"?>
<!-- Generator: Adobe Illustrator 19.0.0, SVG Export Plug-In . SVG Version: 6.00 Build 0)  -->
<svg version="1.1" id="Capa_1" xmlns="http://www.w3.org/2000/svg" xmlns:xlink="http://www.w3.org/1999/xlink" x="0px" y="0px"
	 viewBox="0 0 512 512" style="enable-background:new 0 0 512 512;" xml:space="preserve">
<path style="fill:#ECF0F1;" d="M483.31,512H28.69C12.844,512,0,499.156,0,483.31V105.931h512V483.31
	C512,499.156,499.156,512,483.31,512z"/>
<path style="fill:#687492;" d="M512,105.931H0V28.69C0,12.844,12.844,0,28.69,0H483.31C499.156,0,512,12.844,512,28.69V105.931z"/>
<rect x="35.31" y="35.31" style="fill:#E64C3C;" width="35.31" height="35.31"/>
<rect x="105.931" y="35.31" style="fill:#F0C419;" width="35.31" height="35.31"/>
<rect x="176.552" y="35.31" style="fill:#24AE5F;" width="35.31" height="35.31"/>
<g>
	<rect x="44.138" y="150.069" style="fill:#E64C3C;" width="105.931" height="105.931"/>
	<rect x="44.138" y="291.31" style="fill:#4482C3;" width="105.931" height="176.552"/>
	<rect x="361.931" y="361.931" style="fill:#AF8066;" width="105.931" height="105.931"/>
	<rect x="361.931" y="150.069" style="fill:#F29C1F;" width="105.931" height="176.552"/>
	<rect x="203.034" y="150.069" style="fill:#F0C419;" width="105.931" height="70.621"/>
	<rect x="203.034" y="397.241" style="fill:#8697CB;" width="105.931" height="70.621"/>
	<rect x="203.034" y="256" style="fill:#24AE5F;" width="105.931" height="105.931"/>
</g>
<g>
</g>
<g>
</g>
<g>
</g>
<g>
</g>
<g>
</g>
<g>
</g>
<g>
</g>
<g>
</g>
<g>
</g>
<g>
</g>
<g>
</g>
<g>
</g>
<g>
</g>
<g>
</g>
<g>
</g>
</svg>
