<svg height="440pt" viewBox="-1 -15 440.00052 440" width="440pt" xmlns="http://www.w3.org/2000/svg"><path d="m310.878906 59.53125c23.25-12.675781 51.945313-9.429688 71.773438 8.117188 19.828125 17.546874 26.539062 45.636718 16.789062 70.25 17.214844 4.992187 29.820313 19.726562 32.089844 37.503906 2.265625 17.777344-6.238281 35.207031-21.652344 44.355468 21.304688 13.003907 32.902344 37.375 29.554688 62.109376-3.351563 24.730468-21.007813 45.140624-45.003906 52.011718v22.832032c.003906 17.78125-10 34.050781-25.867188 42.074218-15.867188 8.027344-34.902344 6.4375-49.222656-4.105468-13.09375 14.425781-33.710938 19.3125-51.886719 12.296874-18.175781-7.019531-30.164063-24.492187-30.164063-43.976562v-67.929688h54.710938c9.941406 0 18-8.058593 18-18v-144c0-9.941406-8.058594-18-18-18h-54.710938v-75.789062c.011719-16.484375 10.3125-31.210938 25.792969-36.871094 15.484375-5.664062 32.851563-1.054687 43.496094 11.53125 10.640625 12.589844 12.292969 30.484375 4.132813 44.808594zm0 0" fill="#e48e66"/><path d="m202.710938 295.070312h-54.710938c-9.941406 0-18-8.058593-18-18v-144c0-9.941406 8.058594-18 18-18h144c9.941406 0 18 8.058594 18 18v144c0 9.941407-8.058594 18-18 18zm0 0" fill="#f8ec7d"/><path d="m155 140.070312h130v130h-130zm0 0" fill="#6fe3ff"/><path d="m40.558594 137.898438c-9.664063-24.40625-3.148438-52.25 16.339844-69.835938 19.488281-17.589844 47.851562-21.222656 71.140624-9.113281l1.25-.199219c-8.167968-14.324219-6.519531-32.226562 4.125-44.820312 10.644532-12.59375 28.019532-17.203126 43.503907-11.539063 15.488281 5.667969 25.789062 20.398437 25.792969 36.890625v75.789062h-54.710938c-9.941406 0-18 8.058594-18 18v144c0 9.941407 8.058594 18 18 18h54.710938v67.929688c0 19.484375-11.988282 36.957031-30.160157 43.976562-18.175781 7.015626-38.796875 2.128907-51.890625-12.296874-14.320312 10.542968-33.351562 12.132812-49.222656 4.105468-15.867188-8.023437-25.871094-24.292968-25.867188-42.074218v-22.832032c-23.992187-6.871094-41.652343-27.28125-45-52.011718-3.351562-24.734376 8.246094-49.105469 29.550782-62.109376-15.414063-9.148437-23.917969-26.574218-21.652344-44.355468 2.269531-17.777344 14.875-32.515625 32.089844-37.503906zm0 0" fill="#e48e66"/><g fill="#6fe3ff"><path d="m172.261719 98.578125c-3.316407 0-6-2.683594-6-6v-17.507813c0-3.316406 2.683593-6 6-6 3.3125 0 6 2.683594 6 6v17.507813c0 3.316406-2.6875 6-6 6zm0 0"/><path d="m267.742188 98.578125c-3.316407 0-6-2.683594-6-6v-17.507813c0-3.316406 2.683593-6 6-6 3.3125 0 6 2.683594 6 6v17.507813c0 3.316406-2.6875 6-6 6zm0 0"/><path d="m172.261719 341.070312c-3.316407 0-6-2.6875-6-6v-17.511718c0-3.3125 2.683593-6 6-6 3.3125 0 6 2.6875 6 6v17.511718c0 3.3125-2.6875 6-6 6zm0 0"/><path d="m267.742188 341.070312c-3.316407 0-6-2.6875-6-6v-17.511718c0-3.3125 2.683593-6 6-6 3.3125 0 6 2.6875 6 6v17.511718c0 3.3125-2.6875 6-6 6zm0 0"/><path d="m350 163.328125h-17.507812c-3.316407 0-6-2.683594-6-6 0-3.3125 2.683593-6 6-6h17.507812c3.3125 0 6 2.6875 6 6 0 3.316406-2.6875 6-6 6zm0 0"/><path d="m350 258.808594h-17.507812c-3.316407 0-6-2.683594-6-6 0-3.3125 2.683593-6 6-6h17.507812c3.3125 0 6 2.6875 6 6 0 3.316406-2.6875 6-6 6zm0 0"/><path d="m107.511719 163.328125h-17.511719c-3.3125 0-6-2.683594-6-6 0-3.3125 2.6875-6 6-6h17.511719c3.3125 0 6 2.6875 6 6 0 3.316406-2.6875 6-6 6zm0 0"/><path d="m107.511719 258.808594h-17.511719c-3.3125 0-6-2.683594-6-6 0-3.3125 2.6875-6 6-6h17.511719c3.3125 0 6 2.6875 6 6 0 3.316406-2.6875 6-6 6zm0 0"/></g></svg>